<svg width="880" height="560" viewBox="0 0 880 560" fill="none" xmlns="http://www.w3.org/2000/svg">
  <defs>
    <linearGradient id="bg" x1="0" y1="0" x2="880" y2="560" gradientUnits="userSpaceOnUse">
      <stop stop-color="#0E1826" />
      <stop offset="1" stop-color="#111C2B" />
    </linearGradient>
    <linearGradient id="accent" x1="0" y1="0" x2="1" y2="1">
      <stop stop-color="#00FFFF" />
      <stop offset="1" stop-color="#7EB8FF" />
    </linearGradient>
  </defs>
  <rect width="880" height="560" rx="24" fill="url(#bg)" />
  <rect x="84" y="54" width="714" height="452" rx="28" fill="#0B1018" stroke="rgba(0,255,255,0.35)" stroke-width="2" />
  <rect x="120" y="102" width="296" height="42" rx="10" fill="rgba(0,255,255,0.1)" />
  <rect x="120" y="162" width="412" height="16" rx="8" fill="rgba(242,244,247,0.15)" />
  <rect x="120" y="188" width="350" height="16" rx="8" fill="rgba(242,244,247,0.15)" />
  <rect x="120" y="240" width="230" height="46" rx="22" fill="url(#accent)" />
  <rect x="364" y="240" width="210" height="46" rx="22" fill="rgba(255,255,255,0.06)" stroke="rgba(255,255,255,0.2)" />
  <rect x="120" y="314" width="312" height="160" rx="14" fill="rgba(255,255,255,0.03)" stroke="rgba(255,255,255,0.1)" />
  <rect x="448" y="314" width="312" height="160" rx="14" fill="rgba(0,255,255,0.05)" stroke="rgba(0,255,255,0.2)" />
  <circle cx="674" cy="153" r="70" fill="rgba(0,255,255,0.12)" />
  <path d="M635 153H713" stroke="#00FFFF" stroke-width="5" stroke-linecap="round" />
  <path d="M674 114V192" stroke="#00FFFF" stroke-width="5" stroke-linecap="round" />
</svg>
